<svg xmlns="http://www.w3.org/2000/svg" viewBox="0 0 50 50">
  <g fill="none" fill-rule="evenodd" stroke="none" stroke-width="1">
    <path fill="#8FA0FF" fill-rule="nonzero"
      d="M35.9 24.4h-.2l-1 .6a11 11 0 0 1 1.7 5.5h-4c-.1-1.4-.4-2.7-.8-4l-1.2.3c.3 1.2.6 2.5.6 3.7H26v-2.9h-1.3v2.9H20c0-1.2.3-2.4.7-3.6l-1.3-.4a16 16 0 0 0-.7 4h-4.2c0-2 .7-3.8 1.8-5.4a26 26 0 0 1-1.1-.7 12.3 12.3 0 0 0 10.3 19.1 12.3 12.3 0 0 0 10.4-19m.6 7.3c-.1 2-.8 4-2 5.7-.9-.6-1.9-1.1-2.9-1.5.5-1.4.7-2.8.8-4.2h4Zm-2.8 6.8a11 11 0 0 1-5.5 3.2c1.3-1.3 2.3-2.9 3-4.6l2.5 1.4M26 34.8v-3H31c-.1 1.3-.3 2.5-.7 3.7-1.3-.4-2.8-.7-4.2-.7m3.8 2c-.9 2-2.1 3.8-3.8 5.2v-5.8c1.3 0 2.6.2 3.8.6m-10-5h4.9v3c-1.5 0-2.9.3-4.2.7-.4-1.2-.6-2.4-.7-3.6m-.1 5.3c.7 1.7 1.6 3.3 2.9 4.6-2.1-.5-4-1.6-5.4-3.2l2.5-1.4m5-1V42c-1.6-1.4-3-3.2-3.8-5.2a15 15 0 0 1 3.8-.7m-5.5-.1-3 1.4a11 11 0 0 1-1.9-5.6h4.1c.1 1.4.4 2.9.8 4.2" />
    <path fill="#8FA0FF" fill-rule="nonzero"
      d="M41.3 16.6v-.3c0-.4-.3-.8-.6-1.1-1-1.2-2.1-2.3-3.3-3.2a21.6 21.6 0 0 0-8.9-4.5c-1.9-.3-3.9-.3-5.8 0a15 15 0 0 0-5 1.8A26.6 26.6 0 0 0 10 15c-.8.8-.8 2.1 0 3a23.8 23.8 0 0 0 12.2 7.7c1.9.4 3.9.4 5.8 0 1.6-.2 3.3-.8 5-1.7a25.4 25.4 0 0 0 7.6-5.9c.3-.3.5-.7.6-1.1v-.5Zm-14.3.7a1.6 1.6 0 1 1-3.1 0v-.6h3v.6m12.3-.6-1 1a24.4 24.4 0 0 1-6 4.6 15.9 15.9 0 0 1-6.8 1.7l-2.7-.3c-2.6-.5-5.2-1.9-8-4a21.3 21.3 0 0 1-3-3h8.7a5 5 0 0 0 5 5.6 5 5 0 0 0 5-5.6h8.7Z" />
    <circle cx="25" cy="25" r="24" stroke="#8FA0FF" stroke-width="2" />
  </g>
</svg>