<?xml version="1.0" standalone="no"?>
<!DOCTYPE svg PUBLIC "-//W3C//DTD SVG 20010904//EN"
 "http://www.w3.org/TR/2001/REC-SVG-20010904/DTD/svg10.dtd">
<svg version="1.0" xmlns="http://www.w3.org/2000/svg"
 width="700.000000pt" height="700.000000pt" viewBox="0 0 700.000000 700.000000"
 preserveAspectRatio="xMidYMid meet">
<metadata>
Created by potrace 1.14, written by Peter Selinger 2001-2017
</metadata>
<g transform="translate(0.000000,700.000000) scale(0.100000,-0.100000)"
fill="#000000" stroke="none">
<path d="M3379 5976 c-2 -2 -34 -7 -71 -10 -37 -4 -77 -9 -90 -11 -13 -2 -39
-6 -58 -9 -173 -26 -389 -99 -594 -202 -476 -240 -773 -448 -1089 -766 -126
-127 -159 -184 -159 -277 0 -105 26 -158 142 -288 414 -464 940 -799 1530
-976 177 -53 298 -71 500 -71 194 -1 251 4 450 38 19 3 46 8 60 10 349 57 897
339 1280 660 118 99 168 146 285 266 162 166 194 214 198 292 1 23 7 49 14 55
22 24 -6 100 -60 163 -317 372 -700 677 -1097 872 -200 99 -487 201 -635 227
-33 5 -76 13 -95 16 -39 7 -504 17 -511 11z m-525 -1398 c-6 -386 313 -701
706 -699 41 1 86 3 100 6 83 16 133 31 195 60 245 113 406 364 402 628 l-2 87
75 1 c307 2 1143 -1 1146 -4 3 -3 -264 -272 -310 -312 -237 -209 -507 -394
-721 -496 -358 -170 -789 -241 -1115 -184 -14 2 -51 7 -83 10 -293 29 -680
204 -1079 488 -57 40 -117 85 -132 98 -114 97 -236 216 -333 324 l-61 70 56 5
c31 3 305 5 607 5 l550 0 -1 -87z m911 46 c0 -22 4 -42 10 -46 17 -13 9 -110
-13 -153 -78 -153 -288 -168 -381 -28 -36 55 -43 84 -39 183 l3 75 50 5 c28 3
122 4 210 4 l160 -2 0 -38z"/>
<path d="M4974 3570 c-16 -10 -48 -30 -72 -44 l-43 -27 20 -32 c99 -162 186
-418 206 -608 3 -30 8 -71 10 -92 l4 -37 -281 2 c-263 3 -281 4 -284 21 -1 10
-5 45 -8 77 -9 84 -33 210 -63 320 -14 52 -28 105 -31 117 -5 25 -1 25 -110
-2 -30 -8 -56 -16 -59 -19 -3 -2 4 -44 15 -93 12 -48 26 -115 31 -148 6 -33
13 -71 16 -85 3 -14 8 -62 11 -107 l6 -83 -351 0 -351 0 -2 202 -3 203 -83 1
c-45 1 -85 -2 -88 -7 -3 -5 -5 -97 -6 -204 l-1 -195 -330 0 -329 0 7 84 c3 47
15 124 26 173 25 116 26 118 48 188 l19 60 -91 27 c-49 16 -91 27 -92 26 -15
-20 -73 -293 -81 -388 -4 -36 -8 -72 -9 -80 -2 -8 -4 -32 -4 -52 l-1 -38 -296
0 -296 0 5 83 c14 202 96 441 212 615 19 30 35 55 35 57 0 2 -34 24 -76 50
-61 39 -78 45 -85 34 -151 -241 -231 -463 -269 -754 -11 -84 -5 -357 9 -435
58 -320 154 -547 332 -786 246 -330 648 -582 1034 -649 17 -3 37 -8 45 -10 71
-20 418 -28 525 -13 131 19 344 72 394 98 9 4 41 18 71 30 211 85 459 266 623
455 229 264 384 628 413 967 13 149 5 344 -16 443 -5 22 -12 56 -15 75 -20
118 -94 319 -166 452 -22 40 -47 87 -56 105 -21 41 -33 45 -69 23z m-2383
-1043 c0 -12 2 -33 4 -47 2 -14 6 -43 8 -65 15 -115 62 -339 93 -438 4 -14
-13 -26 -93 -63 -54 -26 -145 -68 -202 -95 -57 -27 -108 -49 -115 -49 -22 1
-134 211 -180 340 -35 97 -73 256 -81 345 -8 78 -8 77 -6 86 0 4 129 7 286 7
l285 1 1 -22z m879 -4 c2 -133 -1 -387 -4 -391 -3 -2 -42 -6 -86 -8 -45 -2
-97 -6 -116 -9 -19 -3 -51 -7 -71 -11 -43 -6 -269 -59 -294 -69 -28 -11 -91
250 -105 438 l-6 77 341 0 341 0 0 -27z m865 -32 c-20 -199 -80 -458 -106
-454 -8 1 -52 12 -99 23 -102 26 -116 29 -210 45 -60 11 -179 22 -252 24 l-28
1 0 210 0 209 350 0 350 -1 -5 -57z m770 -3 c-11 -96 -14 -119 -19 -137 -3 -9
-8 -29 -10 -46 -3 -16 -11 -46 -16 -65 -6 -19 -13 -44 -16 -56 -15 -73 -121
-296 -186 -391 l-29 -42 -57 36 c-31 20 -121 67 -199 105 -79 38 -143 73 -143
78 0 4 9 37 20 72 27 86 68 296 76 393 6 68 10 101 13 113 1 1 130 2 287 2
l286 0 -7 -62z m-1635 -948 c0 -222 -2 -406 -6 -409 -9 -9 -214 208 -285 303
-73 96 -148 218 -192 311 -53 110 -54 102 11 121 94 27 272 62 352 70 41 3 77
8 79 10 2 2 12 2 23 1 18 -3 19 -18 18 -407z m430 376 c74 -12 155 -30 267
-62 21 -6 20 -8 -25 -97 -103 -206 -228 -384 -366 -522 -50 -50 -98 -96 -106
-102 -14 -10 -15 33 -16 394 l0 406 111 -7 c60 -4 121 -8 135 -10z m-1057
-278 c85 -170 159 -287 260 -407 76 -93 79 -91 -72 -39 -149 52 -262 112 -391
206 -89 65 -212 182 -207 196 2 6 21 20 43 32 21 12 95 54 164 93 69 39 126
70 126 71 1 0 36 -69 77 -152z m1689 62 c89 -50 167 -95 173 -101 12 -13 -79
-101 -204 -194 -131 -99 -367 -211 -524 -249 -28 -7 -28 -6 13 38 134 143 290
384 356 548 10 27 20 48 22 48 1 0 75 -41 164 -90z"/>
</g>
</svg>
